<svg width="70" height="70" viewBox="0 0 70 70" fill="none" xmlns="http://www.w3.org/2000/svg">
<g clip-path="url(#clip0_603_13)">
<path d="M67.1562 13.125C64.75 18.0469 65.0781 23.8438 67.8125 28.4375C67.8125 39.9219 61.9062 50.4219 52.3906 56.6562L35 67.8125L17.6094 56.6562C8.09375 50.4219 2.1875 39.8125 2.1875 28.4375C5.14062 23.8438 5.35937 18.0469 2.84375 13.125C2.51562 12.1406 2.625 11.1562 3.28125 10.3906L10.9375 2.1875C14 5.46875 18.2656 7.4375 22.9688 7.4375C27.6719 7.4375 31.9375 5.35938 35 2.1875C38.0625 5.35938 42.2188 7.4375 46.9219 7.4375C51.7344 7.4375 56.1094 5.46875 58.9531 2.1875L66.6094 10.3906C67.375 11.0469 67.4844 12.1406 67.1562 13.125Z" fill="#E3DFDF"/>
<path d="M67.1563 13.125C64.75 18.0469 65.0781 23.8438 67.8125 28.4375C67.8125 39.9219 61.9062 50.4219 52.3906 56.6562L35 67.8125L17.6094 56.6562C39.608 56.3314 62.0725 20.0725 58.9531 2.1875L66.6094 10.3906C67.375 11.0469 67.4844 12.1406 67.1563 13.125Z" fill="#E3DFDF"/>
<path d="M56.875 13.125L35 35L24.0625 26.25L35 43.75L56.875 13.125Z" fill="#EF3279"/>
</g>
<defs>
<clipPath id="clip0_603_13">
<rect width="70" height="70" fill="white"/>
</clipPath>
</defs>
</svg>
