<svg width="70" height="70" viewBox="0 0 70 70" fill="none" xmlns="http://www.w3.org/2000/svg">
<path fill-rule="evenodd" clip-rule="evenodd" d="M33.109 28.6908H32.9647C32.8203 28.6908 32.6759 28.6908 32.6759 28.554H32.5315L20.5473 23.2193C20.1142 23.0826 19.9698 22.809 19.9698 22.5354V6.94187C19.9698 6.66829 20.1142 6.39472 20.403 6.25794C20.403 6.12115 20.5473 6.12115 20.5473 6.12115L32.5315 0.102589C32.8203 -0.0341964 33.109 -0.0341964 33.3978 0.102589L45.5264 6.12115C45.6707 6.12115 45.6707 6.12115 45.8151 6.25794C45.9595 6.39472 46.1039 6.66829 46.1039 6.94187V22.5354C46.1039 22.809 45.9595 23.0826 45.6707 23.2193L33.3978 28.6908C33.2534 28.6908 33.2534 28.6908 33.109 28.6908ZM7.84126 17.3376H7.69688C7.26371 17.2008 6.97494 16.7904 7.11933 16.2433L8.41881 11.4558C6.10861 12.1397 4.37597 13.5076 3.36526 15.2858C0.47751 20.0733 2.35455 26.9126 2.49893 27.0493C2.49893 27.4597 2.35455 27.8701 1.777 28.0068H1.63261C1.19945 28.0068 0.910672 27.8701 0.766285 27.4597C0.621897 27.1861 -1.39952 19.7997 1.777 14.4651C3.07648 12.5501 4.80913 11.0454 7.11933 10.0879L2.64332 8.99365C2.06577 8.85686 1.92138 8.44651 1.92138 8.03615C2.06577 7.48901 2.64332 7.21544 3.07648 7.35222L10.0071 9.13043C10.4402 9.26722 10.729 9.67758 10.5846 10.2247L8.70759 16.6536C8.5632 17.064 8.27442 17.3376 7.84126 17.3376ZM26.3228 70C26.0341 70 25.6009 69.7264 25.6009 69.3161L23.7239 62.7504C23.5795 62.6136 23.7239 62.34 23.7239 62.2032C23.8683 61.9297 24.0126 61.7929 24.3014 61.7929L31.232 60.0147C31.6652 59.8779 32.0983 60.1514 32.2427 60.5618C32.3871 61.1089 32.0983 61.5193 31.6652 61.6561L26.6116 62.8871C28.3443 64.3918 30.3657 65.2125 32.6759 65.2125C38.4514 65.2125 43.7937 60.1514 43.7937 60.0147C44.0825 59.7411 44.66 59.7411 45.0932 60.0147C45.382 60.2882 45.382 60.8354 45.0932 61.2457C44.8044 61.3825 39.1733 66.8539 32.6759 66.8539C30.2213 66.8539 28.0555 66.0332 26.0341 64.5286L27.1892 68.9057C27.3335 69.3161 27.0448 69.8632 26.6116 69.8632C26.6116 70 26.4672 70 26.3228 70ZM64.0079 26.2286C63.8635 26.2286 63.5748 26.0918 63.4304 25.9551L58.3768 21.1676C58.088 20.894 58.088 20.3468 58.3768 20.0733C58.6656 19.6629 59.2431 19.6629 59.5319 20.0733L63.286 23.4929C63.7192 21.3043 63.4304 19.2526 62.2753 17.4744C59.3875 12.6869 52.1682 10.9086 52.0238 10.9086C51.5906 10.7719 51.3018 10.3615 51.4462 9.81436C51.5906 9.40401 52.0238 9.13043 52.4569 9.26722C52.8901 9.40401 60.5426 11.319 63.8635 16.6536C65.0186 18.5686 65.4518 20.7572 65.163 23.2193L68.4839 20.0733C68.7727 19.6629 69.3503 19.6629 69.7834 20.0733C70.0722 20.3468 70.0722 20.894 69.7834 21.1676L64.5855 25.9551C64.4411 26.0918 64.2967 26.2286 64.0079 26.2286ZM58.3768 48.6615C57.9437 48.6615 57.5105 48.3879 57.5105 47.8407V40.7279C57.5105 40.3175 57.9437 39.9072 58.3768 39.9072C58.9544 39.9072 59.2431 40.3175 59.2431 40.7279V47.8407C59.2431 48.3879 58.9544 48.6615 58.3768 48.6615ZM41.7723 48.6615C41.3391 48.6615 40.906 48.3879 40.906 47.8407V40.7279C40.906 40.3175 41.3391 39.9072 41.7723 39.9072C42.2054 39.9072 42.6386 40.3175 42.6386 40.7279V47.8407C42.6386 48.3879 42.2054 48.6615 41.7723 48.6615ZM60.3982 34.9829L50.0024 29.7851L39.8952 34.8461L50.1467 39.4968L60.3982 34.9829ZM37.0075 34.9829C37.0075 34.8461 37.0075 34.8461 37.0075 34.7093C37.1519 34.5725 37.2963 34.299 37.4407 34.299C37.4407 34.1622 37.4407 34.1622 37.585 34.1622L49.5692 28.1436C49.858 28.0068 50.1467 28.0068 50.4355 28.1436L62.7084 34.1622C62.8528 34.299 62.8528 34.299 62.8528 34.299C63.1416 34.5725 63.1416 34.7093 63.1416 34.9829V50.5765C63.1416 50.85 62.9972 51.1236 62.7084 51.2604L50.4355 56.7318C50.2911 56.7318 50.2911 56.7318 50.1467 56.7318H50.0024C49.858 56.7318 49.7136 56.7318 49.5692 56.595L37.585 51.2604C37.1519 51.1236 37.0075 50.85 37.0075 50.5765V34.9829ZM51.0131 54.68L61.409 50.0293V36.214L51.0131 40.8647V54.68ZM38.7401 50.0293L49.2804 54.68V40.8647L38.7401 36.214V50.0293ZM24.3014 48.6615C23.8683 48.6615 23.4351 48.3879 23.4351 47.8407V40.7279C23.4351 40.3175 23.8683 39.9072 24.3014 39.9072C24.879 39.9072 25.1677 40.3175 25.1677 40.7279V47.8407C25.1677 48.3879 24.879 48.6615 24.3014 48.6615ZM7.69688 48.6615C7.26371 48.6615 6.83055 48.3879 6.83055 47.8407V40.7279C6.83055 40.3175 7.26371 39.9072 7.69688 39.9072C8.27442 39.9072 8.5632 40.3175 8.5632 40.7279V47.8407C8.5632 48.3879 8.27442 48.6615 7.69688 48.6615ZM26.3228 34.9829L15.927 29.7851L5.81984 34.8461L16.0713 39.4968L26.3228 34.9829ZM3.50964 34.1622L15.6382 28.1436C15.7826 28.0068 16.0713 28.0068 16.3601 28.1436L28.633 34.1622C28.7774 34.299 28.7774 34.299 28.9218 34.299C29.0662 34.4358 29.2106 34.7093 29.2106 34.9829V50.5765C29.2106 50.85 28.9218 51.1236 28.633 51.2604L16.5045 56.7318H16.3601C16.3601 56.7318 16.2157 56.7318 16.0713 56.7318H15.927C15.7826 56.7318 15.7826 56.7318 15.6382 56.595L3.50964 51.2604C3.22087 51.1236 2.93209 50.85 2.93209 50.5765V34.9829C2.93209 34.7093 3.07648 34.4358 3.36526 34.299C3.36526 34.1622 3.50964 34.1622 3.50964 34.1622ZM16.9377 54.68L27.4779 50.0293V36.214L16.9377 40.8647V54.68ZM4.66474 50.0293L15.205 54.68V40.8647L4.66474 36.214V50.0293ZM41.3391 20.6204C40.906 20.6204 40.4728 20.3468 40.4728 19.7997V12.6869C40.4728 12.2765 40.906 11.8661 41.3391 11.8661C41.9167 11.8661 42.2054 12.2765 42.2054 12.6869V19.7997C42.2054 20.3468 41.9167 20.6204 41.3391 20.6204ZM24.7346 20.6204C24.3014 20.6204 23.8683 20.3468 23.8683 19.7997V12.6869C23.8683 12.2765 24.3014 11.8661 24.7346 11.8661C25.1677 11.8661 25.6009 12.2765 25.6009 12.6869V19.7997C25.6009 20.3468 25.1677 20.6204 24.7346 20.6204ZM22.8575 6.80508L33.109 11.319L43.3605 6.80508L32.9647 1.74402L22.8575 6.80508ZM33.9754 12.8236V26.639L44.3713 21.9883V8.17294L33.9754 12.8236ZM21.7024 21.9883L32.2427 26.639V12.8236L21.7024 8.17294V21.9883Z" fill="#DCF4D8"/>
</svg>
