<svg width="70" height="70" viewBox="0 0 70 70" fill="none" xmlns="http://www.w3.org/2000/svg">
<path d="M34.9996 70C52.8974 70 67.4065 55.4907 67.4065 37.5926C67.4065 19.6944 52.8974 5.18514 34.9996 5.18514C17.1018 5.18514 2.59277 19.6944 2.59277 37.5926C2.59277 55.4907 17.1018 70 34.9996 70Z" fill="#E7EFFF"/>
<path d="M5.18465 10.3704C6.25851 10.3704 7.12906 9.49983 7.12906 8.42594C7.12906 7.35205 6.25851 6.48149 5.18465 6.48149C4.11078 6.48149 3.24023 7.35205 3.24023 8.42594C3.24023 9.49983 4.11078 10.3704 5.18465 10.3704Z" fill="#FF4D69"/>
<path d="M64.814 3.88889C65.8879 3.88889 66.7584 3.01833 66.7584 1.94444C66.7584 0.870558 65.8879 0 64.814 0C63.7401 0 62.8696 0.870558 62.8696 1.94444C62.8696 3.01833 63.7401 3.88889 64.814 3.88889Z" fill="#00C99F"/>
<path d="M68.0557 66.7592C69.1296 66.7592 70.0002 65.8886 70.0002 64.8147C70.0002 63.7408 69.1296 62.8703 68.0557 62.8703C66.9819 62.8703 66.1113 63.7408 66.1113 64.8147C66.1113 65.8886 66.9819 66.7592 68.0557 66.7592Z" fill="#FFA100"/>
<path d="M1.94441 65.4631C3.01828 65.4631 3.88882 64.5925 3.88882 63.5186C3.88882 62.4448 3.01828 61.5742 1.94441 61.5742C0.870542 61.5742 0 62.4448 0 63.5186C0 64.5925 0.870542 65.4631 1.94441 65.4631Z" fill="#00C99F"/>
<path d="M59.3372 8.31572C57.3928 9.61202 56.9002 11.1611 56.3428 12.5546C56.295 12.6755 56.212 12.7792 56.1045 12.8523C55.997 12.9254 55.87 12.9645 55.74 12.9645C55.6101 12.9645 55.4831 12.9254 55.3756 12.8523C55.2681 12.7792 55.1851 12.6755 55.1373 12.5546C54.5799 11.1611 54.0743 9.61202 52.1429 8.31572C52.0547 8.25643 51.9824 8.17635 51.9324 8.08254C51.8824 7.98873 51.8563 7.88406 51.8563 7.77776C51.8563 7.67146 51.8824 7.56679 51.9324 7.47298C51.9824 7.37917 52.0547 7.29909 52.1429 7.2398C54.0873 5.9435 54.5799 4.39443 55.1373 3.00091C55.1851 2.88001 55.2681 2.77628 55.3756 2.70318C55.4831 2.63008 55.6101 2.59099 55.74 2.59099C55.87 2.59099 55.997 2.63008 56.1045 2.70318C56.212 2.77628 56.295 2.88001 56.3428 3.00091C56.9002 4.39443 57.4058 5.9435 59.3372 7.2398C59.4254 7.29909 59.4977 7.37917 59.5477 7.47298C59.5977 7.56679 59.6238 7.67146 59.6238 7.77776C59.6238 7.88406 59.5977 7.98873 59.5477 8.08254C59.4977 8.17635 59.4254 8.25643 59.3372 8.31572ZM17.8564 28.4083C15.912 29.7046 15.4194 31.2537 14.862 32.6472C14.8143 32.7681 14.7312 32.8718 14.6237 32.9449C14.5163 33.018 14.3893 33.0571 14.2593 33.0571C14.1293 33.0571 14.0023 33.018 13.8948 32.9449C13.7873 32.8718 13.7043 32.7681 13.6565 32.6472C13.0991 31.2537 12.5936 29.7046 10.6621 28.4083C10.5739 28.349 10.5016 28.2689 10.4516 28.1751C10.4016 28.0813 10.3755 27.9767 10.3755 27.8704C10.3755 27.7641 10.4016 27.6594 10.4516 27.5656C10.5016 27.4718 10.5739 27.3917 10.6621 27.3324C12.6065 26.0361 13.0991 24.487 13.6565 23.0935C13.7043 22.9726 13.7873 22.8689 13.8948 22.7958C14.0023 22.7227 14.1293 22.6836 14.2593 22.6836C14.3893 22.6836 14.5163 22.7227 14.6237 22.7958C14.7312 22.8689 14.8143 22.9726 14.862 23.0935C15.4194 24.487 15.925 26.0361 17.8564 27.3324C17.9447 27.3917 18.017 27.4718 18.0669 27.5656C18.1169 27.6594 18.1431 27.7641 18.1431 27.8704C18.1431 27.9767 18.1169 28.0813 18.0669 28.1751C18.017 28.2689 17.9447 28.349 17.8564 28.4083Z" fill="#FFA100"/>
<path d="M35.0001 34.9999C43.5911 34.9999 50.5554 28.0354 50.5554 19.4444C50.5554 10.8533 43.5911 3.88879 35.0001 3.88879C26.4092 3.88879 19.4448 10.8533 19.4448 19.4444C19.4448 28.0354 26.4092 34.9999 35.0001 34.9999Z" fill="#FFA100"/>
<path d="M34.9997 31.7593C41.8008 31.7593 47.3143 26.2458 47.3143 19.4445C47.3143 12.6432 41.8008 7.12971 34.9997 7.12971C28.1985 7.12971 22.6851 12.6432 22.6851 19.4445C22.6851 26.2458 28.1985 31.7593 34.9997 31.7593Z" fill="#323FD4"/>
<path d="M43.4253 14.9074V23.9815C43.4249 24.1012 43.3914 24.2184 43.3285 24.3203C43.2656 24.4221 43.1757 24.5045 43.0688 24.5583C34.5717 28.8037 35.2134 28.5185 34.9995 28.5185C34.7856 28.5185 35.4014 28.7972 26.9302 24.5583C26.8233 24.5045 26.7334 24.4221 26.6705 24.3203C26.6076 24.2184 26.5741 24.1012 26.5737 23.9815V14.9074C26.5741 14.7877 26.6076 14.6705 26.6705 14.5686C26.7334 14.4668 26.8233 14.3844 26.9302 14.3306L34.7078 10.4417C34.7983 10.3961 34.8982 10.3723 34.9995 10.3723C35.1008 10.3723 35.2007 10.3961 35.2912 10.4417L43.0688 14.3306C43.1757 14.3844 43.2656 14.4668 43.3285 14.5686C43.3914 14.6705 43.4249 14.7877 43.4253 14.9074Z" fill="#4E6AFF"/>
<path d="M31.1093 16.8519C30.9374 16.8519 30.7726 16.9202 30.651 17.0417C30.5295 17.1633 30.4612 17.3281 30.4612 17.5V19.25L29.0547 17.1435C28.9775 17.0286 28.8655 16.9414 28.7351 16.8948C28.6047 16.8481 28.4628 16.8444 28.3302 16.8843C28.1976 16.9242 28.0812 17.0054 27.9982 17.1162C27.9151 17.227 27.8697 17.3615 27.8687 17.5V21.3889C27.8687 21.5608 27.9369 21.7257 28.0585 21.8472C28.18 21.9688 28.3449 22.0371 28.5168 22.0371C28.6887 22.0371 28.8535 21.9688 28.9751 21.8472C29.0966 21.7257 29.1649 21.5608 29.1649 21.3889V19.6389L30.5714 21.7454C30.6486 21.8603 30.7606 21.9475 30.891 21.9942C31.0214 22.0408 31.1633 22.0445 31.2959 22.0046C31.4285 21.9648 31.5449 21.8835 31.628 21.7727C31.711 21.6619 31.7564 21.5274 31.7575 21.3889V17.5C31.7575 17.3281 31.6892 17.1633 31.5676 17.0417C31.4461 16.9202 31.2812 16.8519 31.1093 16.8519ZM36.2944 16.8519H33.7019C33.53 16.8519 33.3651 16.9202 33.2436 17.0417C33.122 17.1633 33.0537 17.3281 33.0537 17.5V21.3889C33.0537 21.5608 33.122 21.7257 33.2436 21.8472C33.3651 21.9688 33.53 22.0371 33.7019 22.0371C33.8738 22.0371 34.0386 21.9688 34.1602 21.8472C34.2817 21.7257 34.35 21.5608 34.35 21.3889V20.7408H35.6463C35.8182 20.7408 35.9831 20.6725 36.1046 20.5509C36.2261 20.4294 36.2944 20.2645 36.2944 20.0926C36.2944 19.9207 36.2261 19.7558 36.1046 19.6343C35.9831 19.5127 35.8182 19.4445 35.6463 19.4445H34.35V18.1482H36.2944C36.4663 18.1482 36.6312 18.0799 36.7527 17.9583C36.8743 17.8368 36.9426 17.6719 36.9426 17.5C36.9426 17.3281 36.8743 17.1633 36.7527 17.0417C36.6312 16.9202 36.4663 16.8519 36.2944 16.8519ZM41.4795 16.8519H38.887C38.7151 16.8519 38.5502 16.9202 38.4287 17.0417C38.3071 17.1633 38.2388 17.3281 38.2388 17.5C38.2388 17.6719 38.3071 17.8368 38.4287 17.9583C38.5502 18.0799 38.7151 18.1482 38.887 18.1482H39.5351V21.3889C39.5351 21.5608 39.6034 21.7257 39.725 21.8472C39.8465 21.9688 40.0114 22.0371 40.1833 22.0371C40.3552 22.0371 40.52 21.9688 40.6416 21.8472C40.7631 21.7257 40.8314 21.5608 40.8314 21.3889V18.1482H41.4795C41.6514 18.1482 41.8163 18.0799 41.9378 17.9583C42.0594 17.8368 42.1277 17.6719 42.1277 17.5C42.1277 17.3281 42.0594 17.1633 41.9378 17.0417C41.8163 16.9202 41.6514 16.8519 41.4795 16.8519Z" fill="white"/>
<path d="M60.9251 39.537H9.07411C8.35819 39.537 7.77783 40.1174 7.77783 40.8333V44.7222C7.77783 45.4381 8.35819 46.0185 9.07411 46.0185H60.9251C61.641 46.0185 62.2213 45.4381 62.2213 44.7222V40.8333C62.2213 40.1174 61.641 39.537 60.9251 39.537Z" fill="#4E6AFF"/>
<path d="M58.3328 46.0183L55.4681 62.7146C49.6864 67.4248 42.4573 69.9968 34.9999 69.9968C27.5426 69.9968 20.3134 67.4248 14.5318 62.7146L11.667 46.0183H58.3328Z" fill="#323FD4"/>
<path d="M24.6295 65.4629C24.1138 65.4629 23.6192 65.258 23.2546 64.8933C22.8899 64.5287 22.6851 64.0341 22.6851 63.5184V51.8517C22.6851 51.336 22.8899 50.8415 23.2546 50.4768C23.6192 50.1122 24.1138 49.9073 24.6295 49.9073C25.1452 49.9073 25.6397 50.1122 26.0044 50.4768C26.369 50.8415 26.5739 51.336 26.5739 51.8517V63.5184C26.5739 64.0341 26.369 64.5287 26.0044 64.8933C25.6397 65.258 25.1452 65.4629 24.6295 65.4629ZM34.9997 65.4629C34.484 65.4629 33.9894 65.258 33.6248 64.8933C33.2601 64.5287 33.0553 64.0341 33.0553 63.5184V51.8517C33.0553 51.336 33.2601 50.8415 33.6248 50.4768C33.9894 50.1122 34.484 49.9073 34.9997 49.9073C35.5154 49.9073 36.0099 50.1122 36.3746 50.4768C36.7392 50.8415 36.9441 51.336 36.9441 51.8517V63.5184C36.9441 64.0341 36.7392 64.5287 36.3746 64.8933C36.0099 65.258 35.5154 65.4629 34.9997 65.4629ZM45.3699 65.4629C44.8542 65.4629 44.3596 65.258 43.9949 64.8933C43.6303 64.5287 43.4254 64.0341 43.4254 63.5184V51.8517C43.4254 51.336 43.6303 50.8415 43.9949 50.4768C44.3596 50.1122 44.8542 49.9073 45.3699 49.9073C45.8855 49.9073 46.3801 50.1122 46.7448 50.4768C47.1094 50.8415 47.3143 51.336 47.3143 51.8517V63.5184C47.3143 64.0341 47.1094 64.5287 46.7448 64.8933C46.3801 65.258 45.8855 65.4629 45.3699 65.4629Z" fill="#4E6AFF"/>
<path d="M32.9122 44.3464L11.6274 60.0315C10.7163 59.0861 9.8635 58.0861 9.07373 57.0371L30.6048 41.2093C31.0208 40.9033 31.5413 40.7751 32.0518 40.8529C32.5623 40.9307 33.021 41.2081 33.327 41.6241C33.633 42.0401 33.7612 42.5606 33.6834 43.0712C33.6056 43.5817 33.3282 44.0404 32.9122 44.3464ZM60.9247 57.0371C60.1404 58.0766 59.2941 59.0679 58.3905 60.0056L37.0862 44.3464C36.6702 44.0404 36.3928 43.5817 36.315 43.0712C36.2372 42.5606 36.3654 42.0401 36.6714 41.6241C36.9774 41.2081 37.4361 40.9307 37.9466 40.8529C38.4571 40.7751 38.9776 40.9033 39.3936 41.2093L60.9247 57.0371Z" fill="#8FA2FF"/>
</svg>
